<?xml version="1.0" standalone="no"?>
<svg xmlns="http://www.w3.org/2000/svg" width="1024" height="1331" viewBox="0 0 1000 1300"><defs><clipPath id="clip-path-dot-color"><path d="M 252 407 h 7.5 l 7.5 7.5 v 7.5 h -15 z" transform="rotate(-90,259.5,414.5)"/><rect x="252" y="422" width="15" height="15" transform="rotate(0,259.5,429.5)"/><path d="M 252 437 h 7.5 l 7.5 7.5 v 7.5 h -15 z" transform="rotate(180,259.5,444.5)"/><path d="M 252 467 h 7.5 l 7.5 7.5 v 7.5 h -15 z" transform="rotate(-90,259.5,474.5)"/><path d="M 252 482 h 7.5 l 7.5 7.5 v 7.5 h -15 z" transform="rotate(180,259.5,489.5)"/><path d="M 252 527 h 7.5 l 7.5 7.5 v 7.5 h -15 z" transform="rotate(-90,259.5,534.5)"/><path d="M 252 542 h 7.5 l 7.5 7.5 l -7.5 7.5 h -7.5 z" transform="rotate(90,259.5,549.5)"/><path d="M 259.5 587 l 7.5 7.5 l -7.5 7.5 l -7.5 -7.5 z" transform="rotate(0,259.5,594.5)"/><path d="M 252 632 h 7.5 l 7.5 7.5 l -7.5 7.5 h -7.5 z" transform="rotate(-90,259.5,639.5)"/><path d="M 252 647 h 7.5 l 7.5 7.5 v 7.5 h -15 z" transform="rotate(180,259.5,654.5)"/><rect x="267" y="407" width="15" height="15" transform="rotate(0,274.5,414.5)"/><rect x="267" y="422" width="15" height="15" transform="rotate(0,274.5,429.5)"/><rect x="267" y="437" width="15" height="15" transform="rotate(0,274.5,444.5)"/><rect x="267" y="467" width="15" height="15" transform="rotate(0,274.5,474.5)"/><rect x="267" y="482" width="15" height="15" transform="rotate(0,274.5,489.5)"/><path d="M 267 512 h 7.5 l 7.5 7.5 v 7.5 h -15 z" transform="rotate(-90,274.5,519.5)"/><path d="M 267 527 h 7.5 l 7.5 7.5 v 7.5 h -15 z" transform="rotate(90,274.5,534.5)"/><path d="M 274.5 572 l 7.5 7.5 l -7.5 7.5 l -7.5 -7.5 z" transform="rotate(0,274.5,579.5)"/><path d="M 267 617 h 7.5 l 7.5 7.5 l -7.5 7.5 h -7.5 z" transform="rotate(180,274.5,624.5)"/><rect x="267" y="647" width="15" height="15" transform="rotate(0,274.5,654.5)"/><path d="M 282 407 h 7.5 l 7.5 7.5 l -7.5 7.5 h -7.5 z" transform="rotate(0,289.5,414.5)"/><path d="M 282 437 h 7.5 l 7.5 7.5 v 7.5 h -15 z" transform="rotate(0,289.5,444.5)"/><rect x="282" y="452" width="15" height="15" transform="rotate(0,289.5,459.5)"/><rect x="282" y="467" width="15" height="15" transform="rotate(0,289.5,474.5)"/><rect x="282" y="482" width="15" height="15" transform="rotate(0,289.5,489.5)"/><rect x="282" y="497" width="15" height="15" transform="rotate(0,289.5,504.5)"/><rect x="282" y="512" width="15" height="15" transform="rotate(0,289.5,519.5)"/><path d="M 282 542 h 7.5 l 7.5 7.5 l -7.5 7.5 h -7.5 z" transform="rotate(-90,289.5,549.5)"/><path d="M 282 557 h 7.5 l 7.5 7.5 l -7.5 7.5 h -7.5 z" transform="rotate(90,289.5,564.5)"/><path d="M 282 587 h 7.5 l 7.5 7.5 l -7.5 7.5 h -7.5 z" transform="rotate(-90,289.5,594.5)"/><rect x="282" y="602" width="15" height="15" transform="rotate(0,289.5,609.5)"/><rect x="282" y="617" width="15" height="15" transform="rotate(0,289.5,624.5)"/><rect x="282" y="632" width="15" height="15" transform="rotate(0,289.5,639.5)"/><path d="M 282 647 h 7.5 l 7.5 7.5 v 7.5 h -15 z" transform="rotate(90,289.5,654.5)"/><path d="M 304.5 422 l 7.5 7.5 l -7.5 7.5 l -7.5 -7.5 z" transform="rotate(0,304.5,429.5)"/><path d="M 297 482 h 7.5 l 7.5 7.5 l -7.5 7.5 h -7.5 z" transform="rotate(0,304.5,489.5)"/><rect x="297" y="512" width="15" height="15" transform="rotate(0,304.5,519.5)"/><path d="M 297 632 h 7.5 l 7.5 7.5 l -7.5 7.5 h -7.5 z" transform="rotate(0,304.5,639.5)"/><path d="M 312 452 h 7.5 l 7.5 7.5 l -7.5 7.5 h -7.5 z" transform="rotate(-90,319.5,459.5)"/><path d="M 312 467 h 7.5 l 7.5 7.5 l -7.5 7.5 h -7.5 z" transform="rotate(90,319.5,474.5)"/><path d="M 312 497 h 7.5 l 7.5 7.5 l -7.5 7.5 h -7.5 z" transform="rotate(-90,319.5,504.5)"/><rect x="312" y="512" width="15" height="15" transform="rotate(0,319.5,519.5)"/><path d="M 312 527 h 7.5 l 7.5 7.5 v 7.5 h -15 z" transform="rotate(180,319.5,534.5)"/><path d="M 312 572 h 7.5 l 7.5 7.5 l -7.5 7.5 h -7.5 z" transform="rotate(180,319.5,579.5)"/><path d="M 312 602 h 7.5 l 7.5 7.5 l -7.5 7.5 h -7.5 z" transform="rotate(180,319.5,609.5)"/><path d="M 319.5 647 l 7.5 7.5 l -7.5 7.5 l -7.5 -7.5 z" transform="rotate(0,319.5,654.5)"/><path d="M 327 407 h 7.5 l 7.5 7.5 l -7.5 7.5 h -7.5 z" transform="rotate(180,334.5,414.5)"/><rect x="327" y="527" width="15" height="15" transform="rotate(0,334.5,534.5)"/><path d="M 327 572 h 7.5 l 7.5 7.5 l -7.5 7.5 h -7.5 z" transform="rotate(0,334.5,579.5)"/><path d="M 327 602 h 7.5 l 7.5 7.5 v 7.5 h -15 z" transform="rotate(0,334.5,609.5)"/><path d="M 327 617 h 7.5 l 7.5 7.5 v 7.5 h -15 z" transform="rotate(180,334.5,624.5)"/><rect x="342" y="407" width="15" height="15" transform="rotate(0,349.5,414.5)"/><path d="M 342 437 h 7.5 l 7.5 7.5 l -7.5 7.5 h -7.5 z" transform="rotate(180,349.5,444.5)"/><path d="M 349.5 467 l 7.5 7.5 l -7.5 7.5 l -7.5 -7.5 z" transform="rotate(0,349.5,474.5)"/><path d="M 342 497 h 7.5 l 7.5 7.5 l -7.5 7.5 h -7.5 z" transform="rotate(180,349.5,504.5)"/><path d="M 342 527 h 7.5 l 7.5 7.5 l -7.5 7.5 h -7.5 z" transform="rotate(0,349.5,534.5)"/><path d="M 342 557 h 7.5 l 7.5 7.5 l -7.5 7.5 h -7.5 z" transform="rotate(180,349.5,564.5)"/><path d="M 342 587 h 7.5 l 7.5 7.5 l -7.5 7.5 h -7.5 z" transform="rotate(180,349.5,594.5)"/><rect x="342" y="617" width="15" height="15" transform="rotate(0,349.5,624.5)"/><path d="M 342 647 h 7.5 l 7.5 7.5 l -7.5 7.5 h -7.5 z" transform="rotate(180,349.5,654.5)"/><rect x="357" y="407" width="15" height="15" transform="rotate(0,364.5,414.5)"/><rect x="357" y="422" width="15" height="15" transform="rotate(0,364.5,429.5)"/><rect x="357" y="437" width="15" height="15" transform="rotate(0,364.5,444.5)"/><path d="M 357 452 h 7.5 l 7.5 7.5 l -7.5 7.5 h -7.5 z" transform="rotate(90,364.5,459.5)"/><path d="M 357 482 h 7.5 l 7.5 7.5 v 7.5 h -15 z" transform="rotate(-90,364.5,489.5)"/><rect x="357" y="497" width="15" height="15" transform="rotate(0,364.5,504.5)"/><path d="M 357 512 h 7.5 l 7.5 7.5 l -7.5 7.5 h -7.5 z" transform="rotate(90,364.5,519.5)"/><path d="M 357 557 h 7.5 l 7.5 7.5 l -7.5 7.5 h -7.5 z" transform="rotate(0,364.5,564.5)"/><path d="M 357 587 h 7.5 l 7.5 7.5 v 7.5 h -15 z" transform="rotate(0,364.5,594.5)"/><rect x="357" y="602" width="15" height="15" transform="rotate(0,364.5,609.5)"/><rect x="357" y="617" width="15" height="15" transform="rotate(0,364.5,624.5)"/><rect x="357" y="647" width="15" height="15" transform="rotate(0,364.5,654.5)"/><path d="M 372 317 h 7.5 l 7.5 7.5 v 7.5 h -15 z" transform="rotate(-90,379.5,324.5)"/><rect x="372" y="332" width="15" height="15" transform="rotate(0,379.5,339.5)"/><path d="M 372 347 h 7.5 l 7.5 7.5 v 7.5 h -15 z" transform="rotate(180,379.5,354.5)"/><path d="M 379.5 377 l 7.5 7.5 l -7.5 7.5 l -7.5 -7.5 z" transform="rotate(0,379.5,384.5)"/><path d="M 372 407 h 7.5 l 7.5 7.5 v 7.5 h -15 z" transform="rotate(0,379.5,414.5)"/><rect x="372" y="422" width="15" height="15" transform="rotate(0,379.5,429.5)"/><rect x="372" y="437" width="15" height="15" transform="rotate(0,379.5,444.5)"/><path d="M 372 467 h 7.5 l 7.5 7.5 l -7.5 7.5 h -7.5 z" transform="rotate(-90,379.5,474.5)"/><rect x="372" y="482" width="15" height="15" transform="rotate(0,379.5,489.5)"/><path d="M 379.5 542 l 7.5 7.5 l -7.5 7.5 l -7.5 -7.5 z" transform="rotate(0,379.5,549.5)"/><rect x="372" y="617" width="15" height="15" transform="rotate(0,379.5,624.5)"/><path d="M 372 647 h 7.5 l 7.5 7.5 v 7.5 h -15 z" transform="rotate(0,379.5,654.5)"/><rect x="372" y="662" width="15" height="15" transform="rotate(0,379.5,669.5)"/><rect x="372" y="677" width="15" height="15" transform="rotate(0,379.5,684.5)"/><path d="M 372 692 h 7.5 l 7.5 7.5 l -7.5 7.5 h -7.5 z" transform="rotate(90,379.5,699.5)"/><path d="M 372 737 h 7.5 l 7.5 7.5 l -7.5 7.5 h -7.5 z" transform="rotate(-90,379.5,744.5)"/><rect x="372" y="752" width="15" height="15" transform="rotate(0,379.5,759.5)"/><path d="M 372 767 h 7.5 l 7.5 7.5 v 7.5 h -15 z" transform="rotate(180,379.5,774.5)"/><path d="M 394.5 287 l 7.5 7.5 l -7.5 7.5 l -7.5 -7.5 z" transform="rotate(0,394.5,294.5)"/><path d="M 387 317 h 7.5 l 7.5 7.5 v 7.5 h -15 z" transform="rotate(0,394.5,324.5)"/><rect x="387" y="332" width="15" height="15" transform="rotate(0,394.5,339.5)"/><rect x="387" y="347" width="15" height="15" transform="rotate(0,394.5,354.5)"/><path d="M 387 362 h 7.5 l 7.5 7.5 l -7.5 7.5 h -7.5 z" transform="rotate(90,394.5,369.5)"/><path d="M 387 422 h 7.5 l 7.5 7.5 v 7.5 h -15 z" transform="rotate(0,394.5,429.5)"/><path d="M 387 437 h 7.5 l 7.5 7.5 v 7.5 h -15 z" transform="rotate(90,394.5,444.5)"/><path d="M 387 482 h 7.5 l 7.5 7.5 v 7.5 h -15 z" transform="rotate(0,394.5,489.5)"/><path d="M 387 497 h 7.5 l 7.5 7.5 v 7.5 h -15 z" transform="rotate(180,394.5,504.5)"/><path d="M 387 557 h 7.5 l 7.5 7.5 l -7.5 7.5 h -7.5 z" transform="rotate(180,394.5,564.5)"/><path d="M 394.5 587 l 7.5 7.5 l -7.5 7.5 l -7.5 -7.5 z" transform="rotate(0,394.5,594.5)"/><rect x="387" y="617" width="15" height="15" transform="rotate(0,394.5,624.5)"/><path d="M 387 632 h 7.5 l 7.5 7.5 l -7.5 7.5 h -7.5 z" transform="rotate(90,394.5,639.5)"/><path d="M 387 662 h 7.5 l 7.5 7.5 v 7.5 h -15 z" transform="rotate(0,394.5,669.5)"/><rect x="387" y="677" width="15" height="15" transform="rotate(0,394.5,684.5)"/><rect x="387" y="752" width="15" height="15" transform="rotate(0,394.5,759.5)"/><path d="M 387 767 h 7.5 l 7.5 7.5 v 7.5 h -15 z" transform="rotate(90,394.5,774.5)"/><path d="M 402 302 h 7.5 l 7.5 7.5 l -7.5 7.5 h -7.5 z" transform="rotate(180,409.5,309.5)"/><rect x="402" y="332" width="15" height="15" transform="rotate(0,409.5,339.5)"/><path d="M 402 377 h 7.5 l 7.5 7.5 l -7.5 7.5 h -7.5 z" transform="rotate(-90,409.5,384.5)"/><rect x="402" y="392" width="15" height="15" transform="rotate(0,409.5,399.5)"/><path d="M 402 407 h 7.5 l 7.5 7.5 l -7.5 7.5 h -7.5 z" transform="rotate(90,409.5,414.5)"/><path d="M 409.5 467 l 7.5 7.5 l -7.5 7.5 l -7.5 -7.5 z" transform="rotate(0,409.5,474.5)"/><path d="M 402 497 h 7.5 l 7.5 7.5 l -7.5 7.5 h -7.5 z" transform="rotate(0,409.5,504.5)"/><path d="M 402 542 h 7.5 l 7.5 7.5 l -7.5 7.5 h -7.5 z" transform="rotate(-90,409.5,549.5)"/><rect x="402" y="557" width="15" height="15" transform="rotate(0,409.5,564.5)"/><path d="M 402 572 h 7.5 l 7.5 7.5 l -7.5 7.5 h -7.5 z" transform="rotate(90,409.5,579.5)"/><path d="M 402 617 h 7.5 l 7.5 7.5 l -7.5 7.5 h -7.5 z" transform="rotate(0,409.5,624.5)"/><path d="M 402 677 h 7.5 l 7.5 7.5 v 7.5 h -15 z" transform="rotate(0,409.5,684.5)"/><path d="M 402 692 h 7.5 l 7.5 7.5 l -7.5 7.5 h -7.5 z" transform="rotate(90,409.5,699.5)"/><rect x="402" y="752" width="15" height="15" transform="rotate(0,409.5,759.5)"/><path d="M 417 287 h 7.5 l 7.5 7.5 l -7.5 7.5 h -7.5 z" transform="rotate(-90,424.5,294.5)"/><rect x="417" y="302" width="15" height="15" transform="rotate(0,424.5,309.5)"/><path d="M 417 332 h 7.5 l 7.5 7.5 l -7.5 7.5 h -7.5 z" transform="rotate(0,424.5,339.5)"/><rect x="417" y="392" width="15" height="15" transform="rotate(0,424.5,399.5)"/><path d="M 417 422 h 7.5 l 7.5 7.5 l -7.5 7.5 h -7.5 z" transform="rotate(180,424.5,429.5)"/><path d="M 417 647 h 7.5 l 7.5 7.5 v 7.5 h -15 z" transform="rotate(-90,424.5,654.5)"/><path d="M 417 662 h 7.5 l 7.5 7.5 l -7.5 7.5 h -7.5 z" transform="rotate(90,424.5,669.5)"/><path d="M 417 722 h 7.5 l 7.5 7.5 l -7.5 7.5 h -7.5 z" transform="rotate(-90,424.5,729.5)"/><rect x="417" y="737" width="15" height="15" transform="rotate(0,424.5,744.5)"/><path d="M 417 752 h 7.5 l 7.5 7.5 v 7.5 h -15 z" transform="rotate(90,424.5,759.5)"/><rect x="432" y="302" width="15" height="15" transform="rotate(0,439.5,309.5)"/><path d="M 439.5 347 l 7.5 7.5 l -7.5 7.5 l -7.5 -7.5 z" transform="rotate(0,439.5,354.5)"/><path d="M 432 377 h 7.5 l 7.5 7.5 l -7.5 7.5 h -7.5 z" transform="rotate(-90,439.5,384.5)"/><rect x="432" y="392" width="15" height="15" transform="rotate(0,439.5,399.5)"/><rect x="432" y="407" width="15" height="15" transform="rotate(0,439.5,414.5)"/><rect x="432" y="422" width="15" height="15" transform="rotate(0,439.5,429.5)"/><path d="M 432 617 h 7.5 l 7.5 7.5 l -7.5 7.5 h -7.5 z" transform="rotate(-90,439.5,624.5)"/><rect x="432" y="632" width="15" height="15" transform="rotate(0,439.5,639.5)"/><path d="M 432 647 h 7.5 l 7.5 7.5 v 7.5 h -15 z" transform="rotate(90,439.5,654.5)"/><path d="M 439.5 692 l 7.5 7.5 l -7.5 7.5 l -7.5 -7.5 z" transform="rotate(0,439.5,699.5)"/><path d="M 432 737 h 7.5 l 7.5 7.5 l -7.5 7.5 h -7.5 z" transform="rotate(0,439.5,744.5)"/><path d="M 447 302 h 7.5 l 7.5 7.5 v 7.5 h -15 z" transform="rotate(0,454.5,309.5)"/><path d="M 447 317 h 7.5 l 7.5 7.5 v 7.5 h -15 z" transform="rotate(180,454.5,324.5)"/><path d="M 454.5 362 l 7.5 7.5 l -7.5 7.5 l -7.5 -7.5 z" transform="rotate(0,454.5,369.5)"/><rect x="447" y="392" width="15" height="15" transform="rotate(0,454.5,399.5)"/><rect x="447" y="407" width="15" height="15" transform="rotate(0,454.5,414.5)"/><rect x="447" y="422" width="15" height="15" transform="rotate(0,454.5,429.5)"/><path d="M 447 437 h 7.5 l 7.5 7.5 l -7.5 7.5 h -7.5 z" transform="rotate(90,454.5,444.5)"/><path d="M 447 632 h 7.5 l 7.5 7.5 l -7.5 7.5 h -7.5 z" transform="rotate(0,454.5,639.5)"/><path d="M 447 677 h 7.5 l 7.5 7.5 l -7.5 7.5 h -7.5 z" transform="rotate(180,454.5,684.5)"/><path d="M 447 707 h 7.5 l 7.5 7.5 v 7.5 h -15 z" transform="rotate(-90,454.5,714.5)"/><path d="M 447 722 h 7.5 l 7.5 7.5 l -7.5 7.5 h -7.5 z" transform="rotate(90,454.5,729.5)"/><path d="M 454.5 767 l 7.5 7.5 l -7.5 7.5 l -7.5 -7.5 z" transform="rotate(0,454.5,774.5)"/><path d="M 469.5 287 l 7.5 7.5 l -7.5 7.5 l -7.5 -7.5 z" transform="rotate(0,469.5,294.5)"/><path d="M 462 317 h 7.5 l 7.5 7.5 l -7.5 7.5 h -7.5 z" transform="rotate(0,469.5,324.5)"/><path d="M 462 377 h 7.5 l 7.5 7.5 l -7.5 7.5 h -7.5 z" transform="rotate(-90,469.5,384.5)"/><rect x="462" y="392" width="15" height="15" transform="rotate(0,469.5,399.5)"/><rect x="462" y="407" width="15" height="15" transform="rotate(0,469.5,414.5)"/><rect x="462" y="422" width="15" height="15" transform="rotate(0,469.5,429.5)"/><path d="M 462 617 h 7.5 l 7.5 7.5 l -7.5 7.5 h -7.5 z" transform="rotate(180,469.5,624.5)"/><path d="M 462 677 h 7.5 l 7.5 7.5 v 7.5 h -15 z" transform="rotate(0,469.5,684.5)"/><rect x="462" y="692" width="15" height="15" transform="rotate(0,469.5,699.5)"/><rect x="462" y="707" width="15" height="15" transform="rotate(0,469.5,714.5)"/><path d="M 469.5 752 l 7.5 7.5 l -7.5 7.5 l -7.5 -7.5 z" transform="rotate(0,469.5,759.5)"/><path d="M 484.5 302 l 7.5 7.5 l -7.5 7.5 l -7.5 -7.5 z" transform="rotate(0,484.5,309.5)"/><rect x="477" y="407" width="15" height="15" transform="rotate(0,484.5,414.5)"/><rect x="477" y="422" width="15" height="15" transform="rotate(0,484.5,429.5)"/><path d="M 477 437 h 7.5 l 7.5 7.5 l -7.5 7.5 h -7.5 z" transform="rotate(90,484.5,444.5)"/><path d="M 477 617 h 7.5 l 7.5 7.5 l -7.5 7.5 h -7.5 z" transform="rotate(0,484.5,624.5)"/><path d="M 484.5 647 l 7.5 7.5 l -7.5 7.5 l -7.5 -7.5 z" transform="rotate(0,484.5,654.5)"/><path d="M 477 707 h 7.5 l 7.5 7.5 v 7.5 h -15 z" transform="rotate(0,484.5,714.5)"/><path d="M 477 722 h 7.5 l 7.5 7.5 l -7.5 7.5 h -7.5 z" transform="rotate(90,484.5,729.5)"/><path d="M 477 767 h 7.5 l 7.5 7.5 l -7.5 7.5 h -7.5 z" transform="rotate(180,484.5,774.5)"/><path d="M 492 287 h 7.5 l 7.5 7.5 l -7.5 7.5 h -7.5 z" transform="rotate(180,499.5,294.5)"/><path d="M 499.5 332 l 7.5 7.5 l -7.5 7.5 l -7.5 -7.5 z" transform="rotate(0,499.5,339.5)"/><path d="M 499.5 377 l 7.5 7.5 l -7.5 7.5 l -7.5 -7.5 z" transform="rotate(0,499.5,384.5)"/><path d="M 492 407 h 7.5 l 7.5 7.5 v 7.5 h -15 z" transform="rotate(0,499.5,414.5)"/><rect x="492" y="422" width="15" height="15" transform="rotate(0,499.5,429.5)"/><path d="M 492 632 h 7.5 l 7.5 7.5 l -7.5 7.5 h -7.5 z" transform="rotate(180,499.5,639.5)"/><path d="M 492 662 h 7.5 l 7.5 7.5 l -7.5 7.5 h -7.5 z" transform="rotate(180,499.5,669.5)"/><path d="M 499.5 737 l 7.5 7.5 l -7.5 7.5 l -7.5 -7.5 z" transform="rotate(0,499.5,744.5)"/><path d="M 492 767 h 7.5 l 7.5 7.5 l -7.5 7.5 h -7.5 z" transform="rotate(0,499.5,774.5)"/><rect x="507" y="287" width="15" height="15" transform="rotate(0,514.5,294.5)"/><path d="M 514.5 317 l 7.5 7.5 l -7.5 7.5 l -7.5 -7.5 z" transform="rotate(0,514.5,324.5)"/><path d="M 507 347 h 7.5 l 7.5 7.5 l -7.5 7.5 h -7.5 z" transform="rotate(-90,514.5,354.5)"/><path d="M 507 362 h 7.5 l 7.5 7.5 l -7.5 7.5 h -7.5 z" transform="rotate(90,514.5,369.5)"/><path d="M 507 422 h 7.5 l 7.5 7.5 v 7.5 h -15 z" transform="rotate(0,514.5,429.5)"/><path d="M 507 437 h 7.5 l 7.5 7.5 l -7.5 7.5 h -7.5 z" transform="rotate(90,514.5,444.5)"/><path d="M 507 632 h 7.5 l 7.5 7.5 v 7.5 h -15 z" transform="rotate(0,514.5,639.5)"/><rect x="507" y="647" width="15" height="15" transform="rotate(0,514.5,654.5)"/><path d="M 507 662 h 7.5 l 7.5 7.5 v 7.5 h -15 z" transform="rotate(90,514.5,669.5)"/><rect x="522" y="287" width="15" height="15" transform="rotate(0,529.5,294.5)"/><path d="M 522 377 h 7.5 l 7.5 7.5 l -7.5 7.5 h -7.5 z" transform="rotate(-90,529.5,384.5)"/><rect x="522" y="392" width="15" height="15" transform="rotate(0,529.5,399.5)"/><path d="M 522 407 h 7.5 l 7.5 7.5 v 7.5 h -15 z" transform="rotate(180,529.5,414.5)"/><path d="M 522 617 h 7.5 l 7.5 7.5 l -7.5 7.5 h -7.5 z" transform="rotate(180,529.5,624.5)"/><path d="M 522 737 h 7.5 l 7.5 7.5 l -7.5 7.5 h -7.5 z" transform="rotate(180,529.5,744.5)"/><rect x="537" y="287" width="15" height="15" transform="rotate(0,544.5,294.5)"/><path d="M 537 317 h 7.5 l 7.5 7.5 l -7.5 7.5 h -7.5 z" transform="rotate(180,544.5,324.5)"/><path d="M 537 362 h 7.5 l 7.5 7.5 l -7.5 7.5 h -7.5 z" transform="rotate(180,544.5,369.5)"/><path d="M 537 407 h 7.5 l 7.5 7.5 v 7.5 h -15 z" transform="rotate(0,544.5,414.5)"/><rect x="537" y="422" width="15" height="15" transform="rotate(0,544.5,429.5)"/><path d="M 537 437 h 7.5 l 7.5 7.5 v 7.5 h -15 z" transform="rotate(180,544.5,444.5)"/><rect x="537" y="617" width="15" height="15" transform="rotate(0,544.5,624.5)"/><rect x="537" y="632" width="15" height="15" transform="rotate(0,544.5,639.5)"/><rect x="537" y="647" width="15" height="15" transform="rotate(0,544.5,654.5)"/><path d="M 537 662 h 7.5 l 7.5 7.5 l -7.5 7.5 h -7.5 z" transform="rotate(90,544.5,669.5)"/><path d="M 537 722 h 7.5 l 7.5 7.5 v 7.5 h -15 z" transform="rotate(-90,544.5,729.5)"/><path d="M 537 737 h 7.5 l 7.5 7.5 v 7.5 h -15 z" transform="rotate(90,544.5,744.5)"/><path d="M 544.5 767 l 7.5 7.5 l -7.5 7.5 l -7.5 -7.5 z" transform="rotate(0,544.5,774.5)"/><rect x="552" y="287" width="15" height="15" transform="rotate(0,559.5,294.5)"/><rect x="552" y="302" width="15" height="15" transform="rotate(0,559.5,309.5)"/><rect x="552" y="317" width="15" height="15" transform="rotate(0,559.5,324.5)"/><path d="M 552 332 h 7.5 l 7.5 7.5 v 7.5 h -15 z" transform="rotate(180,559.5,339.5)"/><rect x="552" y="362" width="15" height="15" transform="rotate(0,559.5,369.5)"/><path d="M 552 377 h 7.5 l 7.5 7.5 l -7.5 7.5 h -7.5 z" transform="rotate(90,559.5,384.5)"/><rect x="552" y="437" width="15" height="15" transform="rotate(0,559.5,444.5)"/><path d="M 552 617 h 7.5 l 7.5 7.5 l -7.5 7.5 h -7.5 z" transform="rotate(0,559.5,624.5)"/><path d="M 552 647 h 7.5 l 7.5 7.5 l -7.5 7.5 h -7.5 z" transform="rotate(0,559.5,654.5)"/><path d="M 552 707 h 7.5 l 7.5 7.5 l -7.5 7.5 h -7.5 z" transform="rotate(-90,559.5,714.5)"/><path d="M 552 722 h 7.5 l 7.5 7.5 v 7.5 h -15 z" transform="rotate(90,559.5,729.5)"/><path d="M 559.5 752 l 7.5 7.5 l -7.5 7.5 l -7.5 -7.5 z" transform="rotate(0,559.5,759.5)"/><rect x="567" y="287" width="15" height="15" transform="rotate(0,574.5,294.5)"/><path d="M 567 302 h 7.5 l 7.5 7.5 v 7.5 h -15 z" transform="rotate(90,574.5,309.5)"/><rect x="567" y="332" width="15" height="15" transform="rotate(0,574.5,339.5)"/><path d="M 567 362 h 7.5 l 7.5 7.5 l -7.5 7.5 h -7.5 z" transform="rotate(0,574.5,369.5)"/><path d="M 567 392 h 7.5 l 7.5 7.5 l -7.5 7.5 h -7.5 z" transform="rotate(-90,574.5,399.5)"/><path d="M 567 407 h 7.5 l 7.5 7.5 l -7.5 7.5 h -7.5 z" transform="rotate(90,574.5,414.5)"/><rect x="567" y="437" width="15" height="15" transform="rotate(0,574.5,444.5)"/><path d="M 574.5 662 l 7.5 7.5 l -7.5 7.5 l -7.5 -7.5 z" transform="rotate(0,574.5,669.5)"/><path d="M 574.5 737 l 7.5 7.5 l -7.5 7.5 l -7.5 -7.5 z" transform="rotate(0,574.5,744.5)"/><rect x="582" y="287" width="15" height="15" transform="rotate(0,589.5,294.5)"/><path d="M 582 332 h 7.5 l 7.5 7.5 v 7.5 h -15 z" transform="rotate(0,589.5,339.5)"/><path d="M 582 347 h 7.5 l 7.5 7.5 v 7.5 h -15 z" transform="rotate(180,589.5,354.5)"/><path d="M 589.5 377 l 7.5 7.5 l -7.5 7.5 l -7.5 -7.5 z" transform="rotate(0,589.5,384.5)"/><rect x="582" y="437" width="15" height="15" transform="rotate(0,589.5,444.5)"/><path d="M 582 467 h 7.5 l 7.5 7.5 v 7.5 h -15 z" transform="rotate(-90,589.5,474.5)"/><rect x="582" y="482" width="15" height="15" transform="rotate(0,589.5,489.5)"/><rect x="582" y="497" width="15" height="15" transform="rotate(0,589.5,504.5)"/><path d="M 582 512 h 7.5 l 7.5 7.5 l -7.5 7.5 h -7.5 z" transform="rotate(90,589.5,519.5)"/><path d="M 582 542 h 7.5 l 7.5 7.5 l -7.5 7.5 h -7.5 z" transform="rotate(180,589.5,549.5)"/><path d="M 582 572 h 7.5 l 7.5 7.5 l -7.5 7.5 h -7.5 z" transform="rotate(-90,589.5,579.5)"/><rect x="582" y="587" width="15" height="15" transform="rotate(0,589.5,594.5)"/><path d="M 582 602 h 7.5 l 7.5 7.5 v 7.5 h -15 z" transform="rotate(180,589.5,609.5)"/><path d="M 582 632 h 7.5 l 7.5 7.5 v 7.5 h -15 z" transform="rotate(-90,589.5,639.5)"/><path d="M 582 647 h 7.5 l 7.5 7.5 l -7.5 7.5 h -7.5 z" transform="rotate(90,589.5,654.5)"/><path d="M 582 692 h 7.5 l 7.5 7.5 l -7.5 7.5 h -7.5 z" transform="rotate(-90,589.5,699.5)"/><path d="M 582 707 h 7.5 l 7.5 7.5 l -7.5 7.5 h -7.5 z" transform="rotate(90,589.5,714.5)"/><path d="M 589.5 752 l 7.5 7.5 l -7.5 7.5 l -7.5 -7.5 z" transform="rotate(0,589.5,759.5)"/><rect x="597" y="287" width="15" height="15" transform="rotate(0,604.5,294.5)"/><path d="M 597 317 h 7.5 l 7.5 7.5 l -7.5 7.5 h -7.5 z" transform="rotate(180,604.5,324.5)"/><rect x="597" y="347" width="15" height="15" transform="rotate(0,604.5,354.5)"/><path d="M 597 422 h 7.5 l 7.5 7.5 v 7.5 h -15 z" transform="rotate(-90,604.5,429.5)"/><rect x="597" y="437" width="15" height="15" transform="rotate(0,604.5,444.5)"/><rect x="597" y="452" width="15" height="15" transform="rotate(0,604.5,459.5)"/><rect x="597" y="467" width="15" height="15" transform="rotate(0,604.5,474.5)"/><rect x="597" y="482" width="15" height="15" transform="rotate(0,604.5,489.5)"/><path d="M 597 497 h 7.5 l 7.5 7.5 v 7.5 h -15 z" transform="rotate(90,604.5,504.5)"/><path d="M 597 527 h 7.5 l 7.5 7.5 l -7.5 7.5 h -7.5 z" transform="rotate(-90,604.5,534.5)"/><rect x="597" y="542" width="15" height="15" transform="rotate(0,604.5,549.5)"/><rect x="597" y="587" width="15" height="15" transform="rotate(0,604.5,594.5)"/><rect x="597" y="602" width="15" height="15" transform="rotate(0,604.5,609.5)"/><rect x="597" y="617" width="15" height="15" transform="rotate(0,604.5,624.5)"/><rect x="597" y="632" width="15" height="15" transform="rotate(0,604.5,639.5)"/><path d="M 597 722 h 7.5 l 7.5 7.5 l -7.5 7.5 h -7.5 z" transform="rotate(-90,604.5,729.5)"/><path d="M 597 737 h 7.5 l 7.5 7.5 l -7.5 7.5 h -7.5 z" transform="rotate(90,604.5,744.5)"/><path d="M 604.5 767 l 7.5 7.5 l -7.5 7.5 l -7.5 -7.5 z" transform="rotate(0,604.5,774.5)"/><path d="M 612 287 h 7.5 l 7.5 7.5 l -7.5 7.5 h -7.5 z" transform="rotate(0,619.5,294.5)"/><path d="M 612 317 h 7.5 l 7.5 7.5 l -7.5 7.5 h -7.5 z" transform="rotate(0,619.5,324.5)"/><path d="M 612 347 h 7.5 l 7.5 7.5 v 7.5 h -15 z" transform="rotate(0,619.5,354.5)"/><rect x="612" y="362" width="15" height="15" transform="rotate(0,619.5,369.5)"/><rect x="612" y="377" width="15" height="15" transform="rotate(0,619.5,384.5)"/><rect x="612" y="392" width="15" height="15" transform="rotate(0,619.5,399.5)"/><rect x="612" y="407" width="15" height="15" transform="rotate(0,619.5,414.5)"/><rect x="612" y="422" width="15" height="15" transform="rotate(0,619.5,429.5)"/><path d="M 612 437 h 7.5 l 7.5 7.5 v 7.5 h -15 z" transform="rotate(90,619.5,444.5)"/><rect x="612" y="542" width="15" height="15" transform="rotate(0,619.5,549.5)"/><path d="M 612 587 h 7.5 l 7.5 7.5 l -7.5 7.5 h -7.5 z" transform="rotate(0,619.5,594.5)"/><path d="M 612 617 h 7.5 l 7.5 7.5 v 7.5 h -15 z" transform="rotate(0,619.5,624.5)"/><rect x="612" y="632" width="15" height="15" transform="rotate(0,619.5,639.5)"/><rect x="612" y="647" width="15" height="15" transform="rotate(0,619.5,654.5)"/><rect x="612" y="662" width="15" height="15" transform="rotate(0,619.5,669.5)"/><rect x="612" y="677" width="15" height="15" transform="rotate(0,619.5,684.5)"/><rect x="612" y="692" width="15" height="15" transform="rotate(0,619.5,699.5)"/><path d="M 612 707 h 7.5 l 7.5 7.5 v 7.5 h -15 z" transform="rotate(180,619.5,714.5)"/><path d="M 627 407 h 7.5 l 7.5 7.5 v 7.5 h -15 z" transform="rotate(0,634.5,414.5)"/><rect x="627" y="422" width="15" height="15" transform="rotate(0,634.5,429.5)"/><path d="M 627 467 h 7.5 l 7.5 7.5 l -7.5 7.5 h -7.5 z" transform="rotate(-90,634.5,474.5)"/><path d="M 627 482 h 7.5 l 7.5 7.5 v 7.5 h -15 z" transform="rotate(180,634.5,489.5)"/><path d="M 627 512 h 7.5 l 7.5 7.5 l -7.5 7.5 h -7.5 z" transform="rotate(180,634.5,519.5)"/><rect x="627" y="542" width="15" height="15" transform="rotate(0,634.5,549.5)"/><path d="M 627 557 h 7.5 l 7.5 7.5 l -7.5 7.5 h -7.5 z" transform="rotate(90,634.5,564.5)"/><path d="M 627 602 h 7.5 l 7.5 7.5 l -7.5 7.5 h -7.5 z" transform="rotate(180,634.5,609.5)"/><path d="M 627 632 h 7.5 l 7.5 7.5 v 7.5 h -15 z" transform="rotate(0,634.5,639.5)"/><rect x="627" y="647" width="15" height="15" transform="rotate(0,634.5,654.5)"/><rect x="627" y="707" width="15" height="15" transform="rotate(0,634.5,714.5)"/><path d="M 627 752 h 7.5 l 7.5 7.5 v 7.5 h -15 z" transform="rotate(-90,634.5,759.5)"/><path d="M 627 767 h 7.5 l 7.5 7.5 l -7.5 7.5 h -7.5 z" transform="rotate(90,634.5,774.5)"/><rect x="642" y="422" width="15" height="15" transform="rotate(0,649.5,429.5)"/><rect x="642" y="482" width="15" height="15" transform="rotate(0,649.5,489.5)"/><rect x="642" y="497" width="15" height="15" transform="rotate(0,649.5,504.5)"/><path d="M 642 512 h 7.5 l 7.5 7.5 v 7.5 h -15 z" transform="rotate(90,649.5,519.5)"/><path d="M 642 542 h 7.5 l 7.5 7.5 l -7.5 7.5 h -7.5 z" transform="rotate(0,649.5,549.5)"/><path d="M 642 572 h 7.5 l 7.5 7.5 l -7.5 7.5 h -7.5 z" transform="rotate(180,649.5,579.5)"/><rect x="642" y="602" width="15" height="15" transform="rotate(0,649.5,609.5)"/><rect x="642" y="647" width="15" height="15" transform="rotate(0,649.5,654.5)"/><path d="M 649.5 677 l 7.5 7.5 l -7.5 7.5 l -7.5 -7.5 z" transform="rotate(0,649.5,684.5)"/><rect x="642" y="707" width="15" height="15" transform="rotate(0,649.5,714.5)"/><path d="M 642 737 h 7.5 l 7.5 7.5 v 7.5 h -15 z" transform="rotate(-90,649.5,744.5)"/><rect x="642" y="752" width="15" height="15" transform="rotate(0,649.5,759.5)"/><path d="M 657 422 h 7.5 l 7.5 7.5 v 7.5 h -15 z" transform="rotate(0,664.5,429.5)"/><rect x="657" y="437" width="15" height="15" transform="rotate(0,664.5,444.5)"/><rect x="657" y="452" width="15" height="15" transform="rotate(0,664.5,459.5)"/><rect x="657" y="467" width="15" height="15" transform="rotate(0,664.5,474.5)"/><rect x="657" y="482" width="15" height="15" transform="rotate(0,664.5,489.5)"/><path d="M 664.5 527 l 7.5 7.5 l -7.5 7.5 l -7.5 -7.5 z" transform="rotate(0,664.5,534.5)"/><path d="M 657 557 h 7.5 l 7.5 7.5 v 7.5 h -15 z" transform="rotate(-90,664.5,564.5)"/><rect x="657" y="572" width="15" height="15" transform="rotate(0,664.5,579.5)"/><rect x="657" y="587" width="15" height="15" transform="rotate(0,664.5,594.5)"/><rect x="657" y="602" width="15" height="15" transform="rotate(0,664.5,609.5)"/><rect x="657" y="617" width="15" height="15" transform="rotate(0,664.5,624.5)"/><rect x="657" y="632" width="15" height="15" transform="rotate(0,664.5,639.5)"/><rect x="657" y="647" width="15" height="15" transform="rotate(0,664.5,654.5)"/><rect x="657" y="707" width="15" height="15" transform="rotate(0,664.5,714.5)"/><rect x="657" y="722" width="15" height="15" transform="rotate(0,664.5,729.5)"/><rect x="657" y="737" width="15" height="15" transform="rotate(0,664.5,744.5)"/><rect x="657" y="752" width="15" height="15" transform="rotate(0,664.5,759.5)"/><path d="M 657 767 h 7.5 l 7.5 7.5 v 7.5 h -15 z" transform="rotate(180,664.5,774.5)"/><path d="M 672 407 h 7.5 l 7.5 7.5 l -7.5 7.5 h -7.5 z" transform="rotate(180,679.5,414.5)"/><path d="M 672 482 h 7.5 l 7.5 7.5 l -7.5 7.5 h -7.5 z" transform="rotate(0,679.5,489.5)"/><path d="M 672 542 h 7.5 l 7.5 7.5 v 7.5 h -15 z" transform="rotate(-90,679.5,549.5)"/><rect x="672" y="557" width="15" height="15" transform="rotate(0,679.5,564.5)"/><rect x="672" y="572" width="15" height="15" transform="rotate(0,679.5,579.5)"/><rect x="672" y="587" width="15" height="15" transform="rotate(0,679.5,594.5)"/><path d="M 672 602 h 7.5 l 7.5 7.5 v 7.5 h -15 z" transform="rotate(90,679.5,609.5)"/><rect x="672" y="647" width="15" height="15" transform="rotate(0,679.5,654.5)"/><rect x="672" y="662" width="15" height="15" transform="rotate(0,679.5,669.5)"/><rect x="672" y="677" width="15" height="15" transform="rotate(0,679.5,684.5)"/><rect x="672" y="692" width="15" height="15" transform="rotate(0,679.5,699.5)"/><rect x="672" y="707" width="15" height="15" transform="rotate(0,679.5,714.5)"/><rect x="672" y="737" width="15" height="15" transform="rotate(0,679.5,744.5)"/><rect x="672" y="752" width="15" height="15" transform="rotate(0,679.5,759.5)"/><path d="M 672 767 h 7.5 l 7.5 7.5 v 7.5 h -15 z" transform="rotate(90,679.5,774.5)"/><rect x="687" y="407" width="15" height="15" transform="rotate(0,694.5,414.5)"/><rect x="687" y="422" width="15" height="15" transform="rotate(0,694.5,429.5)"/><rect x="687" y="437" width="15" height="15" transform="rotate(0,694.5,444.5)"/><path d="M 687 452 h 7.5 l 7.5 7.5 l -7.5 7.5 h -7.5 z" transform="rotate(90,694.5,459.5)"/><path d="M 694.5 497 l 7.5 7.5 l -7.5 7.5 l -7.5 -7.5 z" transform="rotate(0,694.5,504.5)"/><path d="M 687 542 h 7.5 l 7.5 7.5 l -7.5 7.5 h -7.5 z" transform="rotate(0,694.5,549.5)"/><path d="M 687 617 h 7.5 l 7.5 7.5 v 7.5 h -15 z" transform="rotate(-90,694.5,624.5)"/><rect x="687" y="632" width="15" height="15" transform="rotate(0,694.5,639.5)"/><rect x="687" y="647" width="15" height="15" transform="rotate(0,694.5,654.5)"/><rect x="687" y="662" width="15" height="15" transform="rotate(0,694.5,669.5)"/><path d="M 687 707 h 7.5 l 7.5 7.5 l -7.5 7.5 h -7.5 z" transform="rotate(0,694.5,714.5)"/><rect x="687" y="737" width="15" height="15" transform="rotate(0,694.5,744.5)"/><path d="M 687 752 h 7.5 l 7.5 7.5 v 7.5 h -15 z" transform="rotate(90,694.5,759.5)"/><path d="M 702 407 h 7.5 l 7.5 7.5 l -7.5 7.5 h -7.5 z" transform="rotate(0,709.5,414.5)"/><path d="M 702 512 h 7.5 l 7.5 7.5 l -7.5 7.5 h -7.5 z" transform="rotate(180,709.5,519.5)"/><path d="M 702 557 h 7.5 l 7.5 7.5 l -7.5 7.5 h -7.5 z" transform="rotate(-90,709.5,564.5)"/><rect x="702" y="572" width="15" height="15" transform="rotate(0,709.5,579.5)"/><path d="M 702 587 h 7.5 l 7.5 7.5 v 7.5 h -15 z" transform="rotate(180,709.5,594.5)"/><path d="M 702 617 h 7.5 l 7.5 7.5 v 7.5 h -15 z" transform="rotate(0,709.5,624.5)"/><rect x="702" y="632" width="15" height="15" transform="rotate(0,709.5,639.5)"/><rect x="702" y="647" width="15" height="15" transform="rotate(0,709.5,654.5)"/><rect x="702" y="662" width="15" height="15" transform="rotate(0,709.5,669.5)"/><path d="M 702 677 h 7.5 l 7.5 7.5 v 7.5 h -15 z" transform="rotate(180,709.5,684.5)"/><path d="M 702 722 h 7.5 l 7.5 7.5 l -7.5 7.5 h -7.5 z" transform="rotate(-90,709.5,729.5)"/><rect x="702" y="737" width="15" height="15" transform="rotate(0,709.5,744.5)"/><path d="M 717 422 h 7.5 l 7.5 7.5 v 7.5 h -15 z" transform="rotate(-90,724.5,429.5)"/><rect x="717" y="437" width="15" height="15" transform="rotate(0,724.5,444.5)"/><rect x="717" y="452" width="15" height="15" transform="rotate(0,724.5,459.5)"/><rect x="717" y="467" width="15" height="15" transform="rotate(0,724.5,474.5)"/><rect x="717" y="482" width="15" height="15" transform="rotate(0,724.5,489.5)"/><rect x="717" y="497" width="15" height="15" transform="rotate(0,724.5,504.5)"/><rect x="717" y="512" width="15" height="15" transform="rotate(0,724.5,519.5)"/><rect x="717" y="527" width="15" height="15" transform="rotate(0,724.5,534.5)"/><path d="M 717 542 h 7.5 l 7.5 7.5 l -7.5 7.5 h -7.5 z" transform="rotate(90,724.5,549.5)"/><path d="M 717 587 h 7.5 l 7.5 7.5 l -7.5 7.5 h -7.5 z" transform="rotate(0,724.5,594.5)"/><path d="M 717 662 h 7.5 l 7.5 7.5 v 7.5 h -15 z" transform="rotate(0,724.5,669.5)"/><rect x="717" y="677" width="15" height="15" transform="rotate(0,724.5,684.5)"/><path d="M 717 692 h 7.5 l 7.5 7.5 l -7.5 7.5 h -7.5 z" transform="rotate(90,724.5,699.5)"/><rect x="717" y="737" width="15" height="15" transform="rotate(0,724.5,744.5)"/><path d="M 732 422 h 7.5 l 7.5 7.5 v 7.5 h -15 z" transform="rotate(0,739.5,429.5)"/><path d="M 732 437 h 7.5 l 7.5 7.5 v 7.5 h -15 z" transform="rotate(90,739.5,444.5)"/><path d="M 732 467 h 7.5 l 7.5 7.5 v 7.5 h -15 z" transform="rotate(0,739.5,474.5)"/><path d="M 732 482 h 7.5 l 7.5 7.5 v 7.5 h -15 z" transform="rotate(90,739.5,489.5)"/><path d="M 732 512 h 7.5 l 7.5 7.5 l -7.5 7.5 h -7.5 z" transform="rotate(0,739.5,519.5)"/><path d="M 732 602 h 7.5 l 7.5 7.5 l -7.5 7.5 h -7.5 z" transform="rotate(-90,739.5,609.5)"/><rect x="732" y="617" width="15" height="15" transform="rotate(0,739.5,624.5)"/><rect x="732" y="632" width="15" height="15" transform="rotate(0,739.5,639.5)"/><path d="M 732 647 h 7.5 l 7.5 7.5 l -7.5 7.5 h -7.5 z" transform="rotate(90,739.5,654.5)"/><path d="M 732 677 h 7.5 l 7.5 7.5 l -7.5 7.5 h -7.5 z" transform="rotate(0,739.5,684.5)"/><path d="M 732 722 h 7.5 l 7.5 7.5 l -7.5 7.5 h -7.5 z" transform="rotate(-90,739.5,729.5)"/><rect x="732" y="737" width="15" height="15" transform="rotate(0,739.5,744.5)"/><path d="M 732 752 h 7.5 l 7.5 7.5 l -7.5 7.5 h -7.5 z" transform="rotate(90,739.5,759.5)"/></clipPath><clipPath id="clip-path-corners-square-color-0-0"><path d="m 252 287 m 102.638 36.881 c -2.056 -6.562 -5.337 -12.6 -9.625 -17.762 c -2.144 -2.581 -4.506 -4.987 -7.131 -7.131 c -5.206 -4.287 -11.2 -7.569 -17.762 -9.625 c -4.944 -1.531 -10.194 -2.363 -15.619 -2.363 h -52.5 v 52.5 c 0 5.425 0.831 10.675 2.363 15.619 c 2.056 6.563 5.338 12.6 9.625 17.763 c 2.144 2.581 4.506 4.987 7.131 7.131 c 5.206 4.288 11.2 7.569 17.763 9.625 c 4.944 1.531 10.194 2.363 15.619 2.363 h 52.5 v -52.5 c 0 -5.425 -0.831 -10.675 -2.363 -15.619 z m -10.762 54.994 h -39.375 c -21.744 0 -39.375 -17.631 -39.375 -39.375 v 0 c 0 -21.744 17.631 -39.375 39.375 -39.375 h 0 c 21.744 0 39.375 17.631 39.375 39.375 v 39.375 z"/></clipPath><clipPath id="clip-path-corners-dot-color-0-0"><path d="m 282 317 m 22.532 9.289 c 11.25 -11.121 22.404 -5.561 22.468 5.529 c 0.032 9.096 -14.946 21.889 -20.475 26.261 c -1.189 0.932 -2.829 0.932 -4.018 0 c -5.496 -4.371 -20.507 -17.164 -20.507 -26.229 c 0 -11.121 11.25 -16.682 22.532 -5.561 z"/></clipPath><clipPath id="clip-path-corners-square-color-1-0"><path d="m 642 287 m 102.638 36.881 c -2.056 -6.562 -5.337 -12.6 -9.625 -17.762 c -2.144 -2.581 -4.506 -4.987 -7.131 -7.131 c -5.206 -4.287 -11.2 -7.569 -17.762 -9.625 c -4.944 -1.531 -10.194 -2.363 -15.619 -2.363 h -52.5 v 52.5 c 0 5.425 0.831 10.675 2.363 15.619 c 2.056 6.563 5.338 12.6 9.625 17.763 c 2.144 2.581 4.506 4.987 7.131 7.131 c 5.206 4.288 11.2 7.569 17.763 9.625 c 4.944 1.531 10.194 2.363 15.619 2.363 h 52.5 v -52.5 c 0 -5.425 -0.831 -10.675 -2.363 -15.619 z m -10.762 54.994 h -39.375 c -21.744 0 -39.375 -17.631 -39.375 -39.375 v 0 c 0 -21.744 17.631 -39.375 39.375 -39.375 h 0 c 21.744 0 39.375 17.631 39.375 39.375 v 39.375 z"/></clipPath><clipPath id="clip-path-corners-dot-color-1-0"><path d="m 672 317 m 22.532 9.289 c 11.25 -11.121 22.404 -5.561 22.468 5.529 c 0.032 9.096 -14.946 21.889 -20.475 26.261 c -1.189 0.932 -2.829 0.932 -4.018 0 c -5.496 -4.371 -20.507 -17.164 -20.507 -26.229 c 0 -11.121 11.25 -16.682 22.532 -5.561 z"/></clipPath><clipPath id="clip-path-corners-square-color-0-1"><path d="m 252 677 m 102.638 36.881 c -2.056 -6.562 -5.337 -12.6 -9.625 -17.762 c -2.144 -2.581 -4.506 -4.987 -7.131 -7.131 c -5.206 -4.287 -11.2 -7.569 -17.762 -9.625 c -4.944 -1.531 -10.194 -2.363 -15.619 -2.363 h -52.5 v 52.5 c 0 5.425 0.831 10.675 2.363 15.619 c 2.056 6.563 5.338 12.6 9.625 17.763 c 2.144 2.581 4.506 4.987 7.131 7.131 c 5.206 4.288 11.2 7.569 17.763 9.625 c 4.944 1.531 10.194 2.363 15.619 2.363 h 52.5 v -52.5 c 0 -5.425 -0.831 -10.675 -2.363 -15.619 z m -10.762 54.994 h -39.375 c -21.744 0 -39.375 -17.631 -39.375 -39.375 v 0 c 0 -21.744 17.631 -39.375 39.375 -39.375 h 0 c 21.744 0 39.375 17.631 39.375 39.375 v 39.375 z"/></clipPath><clipPath id="clip-path-corners-dot-color-0-1"><path d="m 282 707 m 22.532 9.289 c 11.25 -11.121 22.404 -5.561 22.468 5.529 c 0.032 9.096 -14.946 21.889 -20.475 26.261 c -1.189 0.932 -2.829 0.932 -4.018 0 c -5.496 -4.371 -20.507 -17.164 -20.507 -26.229 c 0 -11.121 11.25 -16.682 22.532 -5.561 z"/></clipPath></defs><defs/><path fill="#b5e899" d="M805.5,212.31c5.51,0,10,4.49,10,10v621h-631v-621c0-5.51,4.49-10,10-10H805.5 M805.5,182.31h-611 c-22.09,0-40,17.91-40,40v651h691v-651C845.5,200.22,827.59,182.31,805.5,182.31L805.5,182.31z"/>
			<path fill="#ffffff" d="M940.5,870h-881c-7.46,0-13.5-6.04-13.5-13.5l0,0c0-7.46,6.04-13.5,13.5-13.5h881c7.46,0,13.5,6.04,13.5,13.5 l0,0C954,863.96,947.96,870,940.5,870z"/>
			<path fill="#b5e899" d="M809,962H191c-50.81,0-92-41.19-92-92v0h802v0C901,920.81,859.81,962,809,962z"/>
			<path fill="#b5e899" d="M768.77,971.07c-14.11-16.13-35.01-19.44-54.67-9.2c-9.98-9.67-28.38-9.98-44.13-4.35c-5.68,2.03-75.15,29.56-97.52,38.43 c-8.35-14.2-25.85-19.47-32.86-21.57c-11.39-3.42-166.66-31.01-225.5-18.17c-20.04,4.37-173.71,61.92-180.24,64.37 c-4.65,1.74-7.01,6.93-5.27,11.59c1.75,4.66,6.94,7.01,11.59,5.27c44.16-16.55,162.17-60.23,177.76-63.63 c51.68-11.28,201.93,13.46,216.5,17.83c17.97,5.39,25.09,12.04,24.6,22.97c-0.57,12.63-7.05,18.07-25.67,21.56 c-12.73,2.39-120.55,10.82-161.02,13.87c-4.96,0.37-8.67,4.69-8.3,9.65c0.36,4.73,4.3,8.33,8.96,8.32c0.23,0,0.46-0.01,0.69-0.03 c2.63-0.2,31.33-2.36,64.04-4.99c8.42,4.51,41.14,22,55.26,29.06c21.87,10.93,36.25,2.87,54.47-7.34c2.17-1.22,4.46-2.5,6.87-3.81 c11.02-6.01,147.26-89.29,163.74-100.45c5.16-3.49,23.08-13.64,37.18,2.48c3.41,3.9,5.03,9.02,4.55,14.41 c-0.56,6.33-3.9,12.23-9.4,16.63c-6.76,5.41-171.11,134.74-191.44,148.59c-35.01,23.84-77.4,30.45-125.98,19.65 c-10.79-2.4-137.83-38.25-203.5-56.87c-1.85-0.53-3.83-0.44-5.64,0.24l-45,17c-4.65,1.76-7,6.95-5.24,11.6 c1.76,4.65,6.95,7,11.6,5.24l42.22-15.95c24.7,7,188.44,53.38,201.65,56.32c16.47,3.66,32.32,5.49,47.52,5.49 c34.3,0,65.28-9.3,92.5-27.83c21.31-14.51,186.19-144.32,192.56-149.41c9.37-7.5,15.08-17.83,16.08-29.09 C778.62,988.6,775.45,978.71,768.77,971.07z M545.69,1065.1c-2.47,1.35-4.82,2.66-7.05,3.91c-18.45,10.34-24.89,13.3-37.62,6.94 c-7-3.5-18.97-9.78-30.12-15.68c30.98-2.6,59.01-5.16,65.76-6.42c10.64-2,38.92-7.3,40.33-38.44c0.03-0.65,0.03-1.28,0.03-1.91 c34.65-13.74,94.17-37.3,99.01-39.03c7.65-2.73,15.7-3.29,21-1.9C660.36,995.71,555.27,1059.87,545.69,1065.1z"/>
			<polygon fill="#ffffff" points="0,1300 17.07,1300 195,1188 126,997 0,1032.71"/>
			<text fill="#b5e899" font-size="90" x="50%" y="98" dominant-baseline="middle" text-anchor="middle" font-family="sans-serif">Scan Me</text><rect x="218" y="253" height="563" width="564" clip-path="url('#clip-path-background-color')" fill="#ffffff"/><rect x="252" y="287" height="495" width="495" clip-path="url('#clip-path-dot-color')" fill="#2e5a16"/><rect x="252" y="287" height="105" width="105" clip-path="url('#clip-path-corners-square-color-0-0')" fill="#000000"/><rect x="282" y="317" height="45" width="45" clip-path="url('#clip-path-corners-dot-color-0-0')" fill="#000000"/><rect x="642" y="287" height="105" width="105" clip-path="url('#clip-path-corners-square-color-1-0')" fill="#000000"/><rect x="672" y="317" height="45" width="45" clip-path="url('#clip-path-corners-dot-color-1-0')" fill="#000000"/><rect x="252" y="677" height="105" width="105" clip-path="url('#clip-path-corners-square-color-0-1')" fill="#000000"/><rect x="282" y="707" height="45" width="45" clip-path="url('#clip-path-corners-dot-color-0-1')" fill="#000000"/><image href="https://img.qrfy.com/img/large/ca018a76-2dc3-4c34-a338-de3f847a45a7.webp" x="417" y="452" width="165px" height="165px"/></svg>